/* XPM */
static char * ardconn_xpm[] = {
"24 24 185 2",
"  	c None",
". 	c #FF4000",
"+ 	c #3C9296",
"@ 	c #3E949A",
"# 	c #3E969C",
"$ 	c #3F979D",
"% 	c #3E969B",
"& 	c #3D949A",
"* 	c #FF0000",
"= 	c #FFFF00",
"- 	c #40959A",
"; 	c #3D959A",
"> 	c #429FA5",
", 	c #43A2A9",
"' 	c #44A5AB",
") 	c #45A6AC",
"! 	c #43A2A8",
"~ 	c #419DA3",
"{ 	c #000000",
"] 	c #3F9398",
"^ 	c #409CA1",
"/ 	c #46A8AE",
"( 	c #46A9AF",
"_ 	c #47A9AF",
": 	c #47AAB0",
"< 	c #46A8AF",
"[ 	c #FF8000",
"} 	c #1C4043",
"| 	c #FFBF00",
"1 	c #42A0A6",
"2 	c #45A8AE",
"3 	c #48ACB2",
"4 	c #49ADB3",
"5 	c #49ACB2",
"6 	c #020505",
"7 	c #368085",
"8 	c #419FA5",
"9 	c #46A7AE",
"0 	c #47ABB1",
"a 	c #49AEB4",
"b 	c #49AFB5",
"c 	c #49B0B6",
"d 	c #49B0B5",
"e 	c #48AEB4",
"f 	c #163638",
"g 	c #37868B",
"h 	c #47A9B0",
"i 	c #47ACB2",
"j 	c #49B0B7",
"k 	c #4AB2B8",
"l 	c #4BB2B8",
"m 	c #4BB2B9",
"n 	c #358287",
"o 	c #45A5AA",
"p 	c #43A9B0",
"q 	c #43ABB2",
"r 	c #60BABF",
"s 	c #5FBAC0",
"t 	c #44B0B7",
"u 	c #48B3BA",
"v 	c #4CB5BC",
"w 	c #0F2426",
"x 	c #050E0F",
"y 	c #2D6E72",
"z 	c #204F52",
"A 	c #39949A",
"B 	c #77C1C5",
"C 	c #E7F4F5",
"D 	c #F7FCFC",
"E 	c #F6FBFC",
"F 	c #DDF1F2",
"G 	c #6EC4C9",
"H 	c #4AB7BE",
"I 	c #BFBF00",
"J 	c #102B2D",
"K 	c #17393C",
"L 	c #1C4548",
"M 	c #24595C",
"N 	c #388A8D",
"O 	c #6AA8AD",
"P 	c #FDFDFD",
"Q 	c #DDEFF0",
"R 	c #93CDD1",
"S 	c #AA0000",
"T 	c #424242",
"U 	c #345355",
"V 	c #368488",
"W 	c #3A8F93",
"X 	c #37888D",
"Y 	c #3B9095",
"Z 	c #255457",
"` 	c #B5CBCC",
" .	c #CCE6E8",
"..	c #44AAB1",
"+.	c #004040",
"@.	c #002020",
"#.	c #008080",
"$.	c #006060",
"%.	c #464F50",
"&.	c #A3B7B8",
"*.	c #4AA6AC",
"=.	c #43A1A8",
"-.	c #3B9096",
";.	c #3B9197",
">.	c #3D9398",
",.	c #65A8AD",
"'.	c #52B0B6",
").	c #2A4547",
"!.	c #D5D9D9",
"~.	c #53ADB3",
"{.	c #44A4AA",
"].	c #3D9297",
"^.	c #3C9398",
"/.	c #458F94",
"(.	c #30494A",
"_.	c #CFD6D7",
":.	c #52ACB2",
"<.	c #44A3AA",
"[.	c #44A2A8",
"}.	c #47A5AA",
"|.	c #96B3B5",
"1.	c #91AEAF",
"2.	c #43A2A7",
"3.	c #3B8F95",
"4.	c #3A8D92",
"5.	c #46A7AD",
"6.	c #AAB1B1",
"7.	c #6B6D6D",
"8.	c #38878C",
"9.	c #409BA1",
"0.	c #398C91",
"a.	c #3F989D",
"b.	c #44A6AC",
"c.	c #719396",
"d.	c #112B2D",
"e.	c #193E41",
"f.	c #337D81",
"g.	c #1D4B4E",
"h.	c #404000",
"i.	c #112C2D",
"j.	c #1E494B",
"k.	c #378489",
"l.	c #1E4A4C",
"m.	c #132E30",
"n.	c #143133",
"o.	c #193C3E",
"p.	c #1A3F41",
"q.	c #204D4F",
"r.	c #38888D",
"s.	c #43A1A7",
"t.	c #368388",
"u.	c #122D2F",
"v.	c #1F4A4D",
"w.	c #337A7E",
"x.	c #265C60",
"y.	c #39888D",
"z.	c #3E959B",
"A.	c #42A1A7",
"B.	c #3F999F",
"C.	c #348085",
"D.	c #183B3D",
"E.	c #38878B",
"F.	c #419BA0",
"G.	c #44A6AB",
"H.	c #44A7AD",
"I.	c #43A4AA",
"J.	c #3F999E",
"K.	c #36858A",
"L.	c #122B2D",
"M.	c #1F4B4E",
"N.	c #45A7AE",
"O.	c #43A0A6",
"P.	c #3D9399",
"Q.	c #337D82",
"R.	c #0F2527",
"S.	c #1C4345",
"T.	c #368186",
"U.	c #419EA4",
"V.	c #419CA2",
"W.	c #3D9298",
"X.	c #081617",
"Y.	c #225255",
"Z.	c #31787C",
"`.	c #348084",
" +	c #307479",
"                                              . ",
"                + @ # $ $ % & + *           . = ",
"            - ; > , ' ) ) ' ! ~ * *     * . = = ",
"{         ] ^ ) / ( ( _ : _ < * [ * } * | = = = ",
"{ {     - 1 2 ( : 3 3 4 5 3 * | = * * | = = = . ",
"  { 6 7 8 9 _ 0 3 a b c d e . = = * | = = | * { ",
"  { f g ) h i e b j k l m * = = = = = = | * { { ",
"  { { n o p q r s t u v * | = [ [ = = . * w x   ",
"  y { z A B C D E F G H { I [ * * = . J K L M   ",
"  N { z O P Q R { { { { { { { { S * T U V W X   ",
"  Y { Z `  ...{ { +.+.@.{ +.#.$.@.{ %.&.*.=.-.  ",
"  ;.>.{ { ,.'.{ @.#.#.+.{ +.#.#.#.{ ).!.~.{.].  ",
"  ^.1 /.{ { { { +.#.#.+.{ +.#.#.#.{ (._.:.<.+   ",
"  Y [.}.|.{ { { #.#.#.+.{ +.#.#.#.{ { 1.}.2.3.  ",
"  4.> 5.* 6.7.{ +.#.#.+.{ +.#.#.#.{ { { 8.9.0.  ",
"    a.b.* * c.{ { #.#.+.{ +.#.$.+.{ d.e.{ f.    ",
"    4.* [ . g.* h.{ { { { { { { { i.j.k.{ l.    ",
"      * = | * . = [ * m.{ n.o.p.p.q.r.s.t.{     ",
"    * [ = = [ = = . u.v.w.x.y.z.& % A.B.C.{     ",
"    * = = = = = [ * D.E.[.F.G.2 H.I.J.K.  { {   ",
"  * [ = | | = | * L.M.% N.N./ b.O.P.Q.      { { ",
"  * = | . . = * R.S.T.U.2.O.V.W.g             { ",
"* . . * { * . { X.Y.Z.C.`.f. +                { ",
"* * { { {   { {                                 "};
