/* XPM */
static char * arddeco_xpm[] = {
"24 24 209 2",
"  	c None",
". 	c #3C9296",
"+ 	c #3E949A",
"@ 	c #3E969C",
"# 	c #3F979D",
"$ 	c #3E969B",
"% 	c #3D949A",
"& 	c #40959A",
"* 	c #3D959A",
"= 	c #429FA5",
"- 	c #43A2A9",
"; 	c #44A5AB",
"> 	c #45A6AC",
", 	c #43A2A8",
"' 	c #429EA4",
") 	c #41969B",
"! 	c #000000",
"~ 	c #3F9398",
"{ 	c #409CA1",
"] 	c #46A8AE",
"^ 	c #46A9AF",
"/ 	c #47A9AF",
"( 	c #47AAB0",
"_ 	c #46A8AF",
": 	c #46A7AE",
"< 	c #45A5AC",
"[ 	c #409BA0",
"} 	c #409399",
"| 	c #42A0A6",
"1 	c #45A8AE",
"2 	c #48ACB2",
"3 	c #49ADB3",
"4 	c #49ACB2",
"5 	c #48ABB2",
"6 	c #45A7AD",
"7 	c #42A0A5",
"8 	c #3F959A",
"9 	c #020505",
"0 	c #368085",
"a 	c #419FA5",
"b 	c #47ABB1",
"c 	c #49AEB4",
"d 	c #49AFB5",
"e 	c #49B0B6",
"f 	c #49B0B5",
"g 	c #49ADB2",
"h 	c #46A7AD",
"i 	c #3D9196",
"j 	c #163638",
"k 	c #37868B",
"l 	c #47A9B0",
"m 	c #47ACB2",
"n 	c #48AEB4",
"o 	c #49B0B7",
"p 	c #4AB2B8",
"q 	c #4BB2B8",
"r 	c #4BB2B9",
"s 	c #4AB0B7",
"t 	c #48AFB5",
"u 	c #47ADB2",
"v 	c #47ACB1",
"w 	c #40999F",
"x 	c #3B8F94",
"y 	c #358287",
"z 	c #45A5AA",
"A 	c #43A9B0",
"B 	c #43ABB2",
"C 	c #40A0A7",
"D 	c #4AB1B8",
"E 	c #4CB5BC",
"F 	c #49B3BA",
"G 	c #44B0B7",
"H 	c #5FBAC0",
"I 	c #60B9BF",
"J 	c #43AAB1",
"K 	c #43AAB0",
"L 	c #3C9096",
"M 	c #2E6F73",
"N 	c #204F52",
"O 	c #39949A",
"P 	c #345D5F",
"Q 	c #43A4AA",
"R 	c #4AB6BD",
"S 	c #6EC4C9",
"T 	c #DDF1F2",
"U 	c #F6FBFC",
"V 	c #F7FCFC",
"W 	c #E7F4F5",
"X 	c #78C2C6",
"Y 	c #40A6AD",
"Z 	c #388A8D",
"` 	c #6AA8AC",
" .	c #004040",
"..	c #008080",
"+.	c #C0C000",
"@.	c #DFDF00",
"#.	c #E1E4E3",
"$.	c #E1EFF0",
"%.	c #98D1D5",
"&.	c #93CDD0",
"*.	c #DDEFF0",
"=.	c #FEFEFE",
"-.	c #7AC1C6",
";.	c #45A8AD",
">.	c #42A1A6",
",.	c #3A8E93",
"'.	c #3B9095",
").	c #255457",
"!.	c #384242",
"~.	c #6A6F6F",
"{.	c #757A7A",
"].	c #728687",
"^.	c #45A5AB",
"/.	c #56B9BF",
"(.	c #5DBAC0",
"_.	c #CDE7E9",
":.	c #D0E9EA",
"<.	c #4DABB1",
"[.	c #44A2A9",
"}.	c #3B9096",
"|.	c #3B9197",
"1.	c #3D9398",
"2.	c #002020",
"3.	c #1E4043",
"4.	c #B8BFBF",
"5.	c #D0D8D8",
"6.	c #4EA8AE",
"7.	c #66A9AE",
"8.	c #F0F5F5",
"9.	c #54AEB4",
"0.	c #44A4AA",
"a.	c #3D9297",
"b.	c #3C9398",
"c.	c #458F94",
"d.	c #2B4A4C",
"e.	c #D6DADB",
"f.	c #F4F9FA",
"g.	c #75C9CE",
"h.	c #C1C7C8",
"i.	c #51A9AF",
"j.	c #44A3AA",
"k.	c #44A2A8",
"l.	c #47A5AA",
"m.	c #D1DCDD",
"n.	c #006060",
"o.	c #3B898E",
"p.	c #419EA3",
"q.	c #3B8F95",
"r.	c #3A8D92",
"s.	c #4D9CA0",
"t.	c #3D4344",
"u.	c #285457",
"v.	c #2C5C5E",
"w.	c #7B8889",
"x.	c #1F4B4E",
"y.	c #3B8E93",
"z.	c #388B90",
"A.	c #3F989D",
"B.	c #43A4A9",
"C.	c #36858A",
"D.	c #193D3F",
"E.	c #3A8B91",
"F.	c #30767B",
"G.	c #45A6AB",
"H.	c #34878C",
"I.	c #1B4A4E",
"J.	c #163E40",
"K.	c #194042",
"L.	c #225457",
"M.	c #4BB3B9",
"N.	c #183C3E",
"O.	c #3D9499",
"P.	c #419AA0",
"Q.	c #3F979C",
"R.	c #3F989E",
"S.	c #419DA2",
"T.	c #48ADB3",
"U.	c #49AFB6",
"V.	c #102628",
"W.	c #409AA0",
"X.	c #47ADB3",
"Y.	c #0E2324",
"Z.	c #37868C",
"`.	c #3F9A9F",
" +	c #48ABB1",
".+	c #48ACB1",
"++	c #48AAB0",
"@+	c #112B2C",
"#+	c #153436",
"$+	c #102829",
"%+	c #010303",
"&+	c #337F84",
"*+	c #43A1A7",
"=+	c #44A6AC",
"-+	c #45A7AE",
";+	c #204E51",
">+	c #183B3D",
",+	c #1B4245",
"'+	c #24595C",
")+	c #37878C",
"!+	c #419CA2",
"~+	c #43A0A6",
"{+	c #43A2A7",
"]+	c #368287",
"^+	c #2E7276",
"/+	c #307479",
"(+	c #337D81",
"_+	c #348085",
":+	c #348084",
"                                                ",
"                . + @ # # $ % .                 ",
"            & * = - ; > > ; , ' * )             ",
"!         ~ { > ] ^ ^ / ( / _ : < [ }           ",
"! !     & | 1 ^ ( 2 2 3 4 2 5 ( ^ 6 7 8         ",
"  ! 9 0 a : / b 2 c d e f d c g b / h = i       ",
"  ! j k > l m n d o p q r p s t u v / 6 w x     ",
"  ! ! y z A B ! ! ! C D E F G H I J K ^ ; L     ",
"  M ! N O ! ! ! ! ! P Q R S T U V W X Y 1 [     ",
"  Z ! N ` !  .....! +.+.@.#.$.%.&.*.=.-.;.>.,.  ",
"  '.! ).! ! ......! !.~.{.].^./.(.K _.:.<.[.}.  ",
"  |.1.! ! 2.......! 3.4.5.6.! ! ! ! 7.8.9.0.a.  ",
"  b.| c.!  .......! d.e.f.g.! 2. .2.! h.i.j..   ",
"  '.k.l.! !  .....! +.+.@.m.!  .....n.! o.p.q.  ",
"  r.= > s.! 2. . .! t.u.v.w.!  .......! x.y.z.  ",
"    A.6 B.C.! ! ! ! D.E.' ' !  .......! ! F.    ",
"    r.k._ G.H.I.J.K.L.>.M.p !  .......! ! N.    ",
"      O.> ^ > P.Q.R.S.T.D U.!  .......! V.!     ",
"      k W.> ^ ^ b u X.d c c ! 2. .2.! ! Y.!     ",
"        Z.`.^.1 ^ (  +.+ +++! ! ! @+#+$+%+! !   ",
"          &+O.*+=+-+] ] _ _ @ ;+>+,+'+      ! ! ",
"              )+1.!+~+, {+~+R.]+^+            ! ",
"                  /+(+_+:+(+/+                ! ",
"                                                "};
