/* XPM */
static const char* builtwithwx_xpm[] = {
/* columns rows colors chars-per-pixel */
"116 49 8 1",
"o c #FF0000",
"  c None",
"@ c #FFFF00",
"# c #800000",
"O c #0000FF",
"+ c #FFFFFF",
". c #000080",
"X c #808080",
/* pixels */
"                                                                                                                    ",
"                                                                                                                    ",
"                                                                                                                    ",
"                                                                                                                    ",
"                                                                                                                    ",
"     ..              .. ..                    ..      ..                                                            ",
"     ..X              XX..X ..                 XX ..  ..X                                                           ",
"     ..X                ..X ..X                   ..X ..X                                                           ",
"     ......  ..  ..  .. ..X....    ..  ..  .. .. .... .....                                                         ",
"     ..XXX.X ..X ..X ..X..X ..XX    .X ..X .XX..X ..XX..X ..                                                        ",
"     ..X  .X ..X ..X ..X..X ..X     .X. .X .X ..X ..X ..X ..X                                                       ",
"     ..X  .X ..X ..X ..X..X ..X     .X.X .. X ..X ..X ..X ..X                                                       ",
"     ..X ..X ..X ..X ..X..X ..X      ..X ..X  ..X ..X ..X ..X                                                       ",
"     .....XX  .....X ..X..X ...      ..X ..X  ..X ... ..X ..X                                                       ",
"      XXXXX    XXXXX  XX XX  XXX      XX  XX   XX  XXX XX  XX                                                       ",
"                                                                                                                    ",
"                                                                                                                    ",
"                                                                                                                    ",
"                                                                                                                    ",
"                                             oooo                             oooo                                  ",
"                                            o XXoo                           o XXXX                                 ",
"                                             X   oX    o    oo   oo         o X                                     ",
"                                                 oo    oX   oXX   XX       ooX                     o                ",
"                                                 ooX  ooX   oX             ooX                     oX               ",
"                  ooo    o    o    oo    oo      ooX  ooX  ooX  oo      oooooX    oooo     ooo   ooooo    ooo       ",
"                 ooXoo   oo   oX  o oX  o XX     ooX o oo  oXX  ooX   oo XooXX   o XXoo   ooXoo   ooXXX  o XoX      ",
"                 oXX oX  ooX ooX   Xoo o X        oX oXooXooX   ooX  ooXX ooX   o X  ooX ooXXooX  ooX    oX  X      ",
"                  X  oo oooX oXX     oo X         oXo XooXoXX   ooX  oXX  ooX  ooX   oXX oXXooXX  oXX    oo         ",
"                     ooXoXoXooX      ooX          oo X ooo X    oXX ooX  oooX  oXX  ooX oooooXX   oX      oo        ",
"                     oooXXoooXX     oooX          ooX  oooX    ooX  ooX oooXX ooX  ooXX ooXXXX   ooX       oX       ",
"                     ooXX ooXX     o Xoo          oXX   oXX    ooX  ooXooooX  ooX o oX  ooX      ooX       oX       ",
"        OOOOOOOOO    oXX  oXX    oo X  ooo        oX    oX     ooX  ooooXoooo  ooo XoX   ooooo   oooo  oooooX       ",
"        O+OOOOOOOX    X    X      XX    XXX        X     X      XX   XXXX XXXX oXXX oX    XXXXX   XXXX  XXXXX       ",
"        O+OOOOOOOX                                                            o X   oX                              ",
"        O+OOOOOOOX                                                           o X   ooX                              ",
"        O+OOOOOOOX                                                           oX    o X                              ",
"        O+OOOOO@@@@@@@@                                                      oooooo X                               ",
"   oooooO+OOOOO@+@@@@@@X                                                      XXXXXX                                ",
"   o+oooOOOOOOO@+@@@@@@X     oooooooooooooooooooooooooooooooooooooooooooooooooooooooooooooooooooooooooooooooo       ",
"   o+ooo###XXXX@+@@@@@@X    oooo++ooooooooooooooo++o+oooo+oo++ooooooooooooooo++oo+o+o+oo+o+o+ooooooooooooooooo      ",
"   o+ooooooX   @+@@@@@@X   oooo+oo+o+o+oo+oo+oooo+o++o++o+++ooo+o+o++o+o+ooo+oooo+o+o+oo+ooo++o+o+o++o+o++o+ooo     ",
"   o+ooooooX   @+@@@@@@X   oooo+oo++o+o++oo+ooo+o++o++o+o+o++o+o+++o++o+o+oo+o++o+o+o+oo+o+o+o+++o+o+o++o+o+oooX    ",
"   o+ooooooX   @+@@@@@@X   oooo+oo+oo+o+o++o++ooo+oo++o+o+o+oo+o++oo+oo+o+oo+oo+o+o+o+oo+o+o+o++oo+o+o+ooo++oooX    ",
"   o+ooooooX   @@@@@@@@X   ooooo+++ooo+oo+oo+oooo+oo+o+o++++ooo+o+oo+oo+o+ooo++ooo+oo+oo+o+o++o+ooo+o++oooo+oooX    ",
"   ooooooooX    XXXXXXXX    oooooooooooooooooooooooooooooooooooooooooooooooooooooooooooooooooooooooooooooo+oooXX    ",
"    XXXXXXXX                 ooooooooooooooooooooooooooooooooooooooooooooooooooooooooooooooooooooooooooooooooXX     ",
"                              XXXXXXXXXXXXXXXXXXXXXXXXXXXXXXXXXXXXXXXXXXXXXXXXXXXXXXXXXXXXXXXXXXXXXXXXXXXXXXXX      ",
"                                                                                                                    ",
"                                                                                                                    "
};
