/* XPM */
static const char * connect_xpm[] = {
"24 24 14 1",
" 	c None",
".	c #FF4000",
"+	c #FF0000",
"@	c #FFFF00",
"#	c #000000",
"$	c #FF8000",
"%	c #FFBF00",
"&	c #BFBF00",
"*	c #AA0000",
"=	c #004040",
"-	c #002020",
";	c #008080",
">	c #006060",
",	c #404000",
"                       .",
"                +     .@",
"                ++  +.@@",
"#              +$+ +%@@@",
"##            +%@++%@@@.",
" #            .@@+%@@%+ ",
" #           +@@@@@@%+  ",
" ##         +%@$$@@.+   ",
"  #         #&$++@.     ",
"  #     ########*+      ",
"  #    ##==-#=;>-#      ",
"   ##  #-;;=#=;;;#      ",
"    ####=;;=#=;;;#      ",
"     ###;;;=#=;;;##     ",
"    +  #=;;=#=;;;###    ",
"    ++ ##;;=#=;>=#  #   ",
"   +$. +,########   #   ",
"   +@%+.@$+ #        #  ",
"  +$@@$@@.           #  ",
"  +@@@@@$+           ## ",
" +$@%%@%+             # ",
" +@%..@+               #",
"+..+ +.                #",
"++                      "};
