/* XPM */
static const char * deco_xpm[] = {
"24 24 8 1",
" 	c None",
".	c #000000",
"+	c #004040",
"@	c #008080",
"#	c #C0C000",
"$	c #DFDF00",
"%	c #002020",
"&	c #006060",
"                        ",
"                        ",
"                        ",
".                       ",
"..                      ",
" .                      ",
" .                      ",
" ..    ...              ",
"  .  .....              ",
"  .  .+@@.##$           ",
"  . ..@@@.              ",
"   ..%@@@.    ....      ",
"    .+@@@.    .%+%.     ",
"    ..+@@.##$ .+@@&.    ",
"     .%++.    .+@@@.    ",
"      ....    .+@@@..   ",
"              .+@@@..   ",
"              .+@@@. .  ",
"              .%+%.. .  ",
"              ...    .. ",
"                      . ",
"                       .",
"                       .",
"                        "};
