/* XPM */
static const char * filesaveas_xpm[] = {
"24 23 239 2",
"  	c None",
". 	c #5F666D",
"+ 	c #7A805B",
"@ 	c #E4E612",
"# 	c #808000",
"$ 	c #101112",
"% 	c #4F555B",
"& 	c #AFB236",
"* 	c #D4D400",
"= 	c #2A2A00",
"- 	c #000000",
"; 	c #5D656D",
"> 	c #56626C",
", 	c #5A6670",
"' 	c #646E77",
") 	c #737A81",
"! 	c #777D83",
"~ 	c #8E9374",
"{ 	c #E8E936",
"] 	c #939313",
"^ 	c #2E2F0F",
"/ 	c #4A4F4D",
"( 	c #A8AB2E",
"_ 	c #131300",
": 	c #464600",
"< 	c #D6D600",
"[ 	c #56616C",
"} 	c #314F69",
"| 	c #46647E",
"1 	c #788EA1",
"2 	c #CBD0D5",
"3 	c #E0E1E2",
"4 	c #E5E6DF",
"5 	c #FAFAD1",
"6 	c #E6E667",
"7 	c #AEAE04",
"8 	c #323312",
"9 	c #89890B",
"0 	c #676700",
"a 	c #CFCF00",
"b 	c #5B6671",
"c 	c #4A6782",
"d 	c #567592",
"e 	c #7F98AD",
"f 	c #E5EAEF",
"g 	c #F0F0F0",
"h 	c #E0E1E1",
"i 	c #D2D2D3",
"j 	c #999999",
"k 	c #8B8B45",
"l 	c #878700",
"m 	c #787800",
"n 	c #BABA00",
"o 	c #E8E800",
"p 	c #8C8C00",
"q 	c #7F7F00",
"r 	c #646D78",
"s 	c #7689A2",
"t 	c #708AA4",
"u 	c #E1E2E2",
"v 	c #C3C4C5",
"w 	c #A7A8A4",
"x 	c #383821",
"y 	c #1C1C00",
"z 	c #424200",
"A 	c #D9D900",
"B 	c #FFFF00",
"C 	c #8D8D00",
"D 	c #F7F7F7",
"E 	c #EFEFEF",
"F 	c #E7E8C8",
"G 	c #CACA28",
"H 	c #C2C200",
"I 	c #CCCC00",
"J 	c #F5F500",
"K 	c #E1E100",
"L 	c #F1F1F2",
"M 	c #E3E4E4",
"N 	c #D6D7BE",
"O 	c #A3A326",
"P 	c #969600",
"Q 	c #A7A700",
"R 	c #EDED00",
"S 	c #CACA00",
"T 	c #E0E0E1",
"U 	c #C0C1C2",
"V 	c #A3A4A5",
"W 	c #2E2E2E",
"X 	c #111108",
"Y 	c #363600",
"Z 	c #C9C900",
"` 	c #F7F700",
" .	c #FCFC00",
"..	c #F1F100",
"+.	c #0E0E00",
"@.	c #030300",
"#.	c #F6F6F6",
"$.	c #ECECED",
"%.	c #E3E3E4",
"&.	c #C0C0C0",
"*.	c #B7B75B",
"=.	c #A4A400",
"-.	c #5B5B00",
";.	c #ADAD00",
">.	c #738CA7",
",.	c #7B94AB",
"'.	c #B5C3CE",
").	c #C3CFD7",
"!.	c #CDD7CE",
"~.	c #F5F7AA",
"{.	c #D0D050",
"].	c #8C8E09",
"^.	c #37412D",
"/.	c #91961B",
"(.	c #626314",
"_.	c #C8CA26",
":.	c #7A90AC",
"<.	c #758DA8",
"[.	c #628098",
"}.	c #5E7C94",
"|.	c #78927C",
"1.	c #E2E71C",
"2.	c #7F8004",
"3.	c #12171C",
"4.	c #4E687C",
"5.	c #ADBD4C",
"6.	c #D3D304",
"7.	c #2C2D04",
"8.	c #313538",
"9.	c #797F5B",
"0.	c #E4E513",
"a.	c #788FAB",
"b.	c #728BA5",
"c.	c #7189A4",
"d.	c #79919C",
"e.	c #9DAD7C",
"f.	c #7C8B74",
"g.	c #57687C",
"h.	c #6B839C",
"i.	c #8B9F8C",
"j.	c #98A674",
"k.	c #606F74",
"l.	c #596470",
"m.	c #696F66",
"n.	c #6E88A5",
"o.	c #62809E",
"p.	c #6C7B8C",
"q.	c #567897",
"r.	c #326082",
"s.	c #728BA7",
"t.	c #537695",
"u.	c #63829B",
"v.	c #7A92A5",
"w.	c #7C94A6",
"x.	c #839AAC",
"y.	c #8AA0B1",
"z.	c #90A5B6",
"A.	c #95ABBC",
"B.	c #9BB0C1",
"C.	c #A3B7C8",
"D.	c #AFC1CF",
"E.	c #7F9AB1",
"F.	c #3C6788",
"G.	c #6A889E",
"H.	c #9EABB6",
"I.	c #8497A6",
"J.	c #8497A8",
"K.	c #8C9EAF",
"L.	c #94A5B5",
"M.	c #AEB9C5",
"N.	c #C8CED5",
"O.	c #D0D7DE",
"P.	c #DAE0E7",
"Q.	c #E6EAF1",
"R.	c #FAFBFC",
"S.	c #98AFC0",
"T.	c #909FAD",
"U.	c #395C79",
"V.	c #375D7E",
"W.	c #4B6F8F",
"X.	c #4B6F90",
"Y.	c #899EB1",
"Z.	c #8E9EAC",
"`.	c #325675",
" +	c #30577A",
".+	c #446A8C",
"++	c #839AAF",
"@+	c #C5CBD3",
"#+	c #D1D5DA",
"$+	c #D9DDE3",
"%+	c #E4E8EF",
"&+	c #FAFAFC",
"*+	c #8298AD",
"=+	c #C4C9D1",
"-+	c #CFD3D7",
";+	c #D6DBE1",
">+	c #E1E6ED",
",+	c #F9FAFB",
"'+	c #8398AA",
")+	c #C4C7CC",
"!+	c #CAD0D8",
"~+	c #D1D9E1",
"{+	c #DDE5EB",
"]+	c #F8FAFB",
"^+	c #738DA1",
"/+	c #ABB3BB",
"(+	c #8192A2",
"_+	c #859AAD",
":+	c #97ACC0",
"<+	c #A6B8C8",
"[+	c #C7D0D8",
"}+	c #E4E6E7",
"|+	c #E6E9EE",
"1+	c #EAEDF2",
"2+	c #EFF3F6",
"3+	c #FCFDFD",
"4+	c #636D77",
"5+	c #728399",
"6+	c #7588A0",
"7+	c #6B819A",
"8+	c #436783",
"9+	c #74899A",
"0+	c #AFB2B6",
"a+	c #B7BDC3",
"b+	c #C4CCD2",
"c+	c #DADDDF",
"d+	c #8CA1B0",
"e+	c #6B7989",
"f+	c #636C76",
"g+	c #636C77",
"h+	c #616B75",
"i+	c #5A6671",
"j+	c #636D75",
"k+	c #6E747B",
"l+	c #70767D",
"m+	c #727980",
"n+	c #767C83",
"o+	c #68717A",
"p+	c #636C75",
". . . . . . . . . . . . . + @ # $ % & * = - = * ",
". ; > , ' ) ! ! ! ! ! ! ! ~ { ] ^ / ( * = _ : < ",
". [ } | 1 2 3 3 3 3 3 3 3 4 5 6 7 8 9 * = 0 a   ",
". b c d e f g h h h h h h i j k l m n o p # q = ",
". r s t e f u v v v v v v w x y z A B B B C y y ",
". r s t e f D E E E E E E F G H I J B B B K H H ",
". r s t e f L M M M M M M N O P Q R B B B S P P ",
". r s t e f T U U U U U U V W X Y Z `  ...# +.@.",
". r s t e f #.$.$.$.$.$.$.%.&.*.=.-.=.K 0 # ;.  ",
". r s >.,.'.).).).).).).).!.~.{.].^./.* = (._.  ",
". r s :.<.[.}.}.}.}.}.}.}.|.1.2.3.4.5.6.7.8.9.0.",
". r s :.a.b.c.c.c.c.c.c.c.d.e.f.g.h.i.j.k.l.m.  ",
". r s :.:.:.n.o.o.o.o.o.o.o.o.o.o.o.n.:.:.p..   ",
". r s :.:.:.q.r.r.r.r.r.r.r.r.r.r.r.q.:.:.p..   ",
". r s :.s.t.u.v.v.v.w.x.y.z.A.B.C.D.E.t.s.p..   ",
". r s :.n.F.G.H.I.J.K.L.M.N.O.P.Q.R.S.F.n.p..   ",
". r s :.n.F.G.T.U.V.W.X.Y.N.O.P.Q.R.S.F.n.p..   ",
". r s :.n.F.G.Z.`. +.+.+++@+#+$+%+&+S.F.n.p..   ",
". r s :.n.F.G.Z.`. +.+.+*+=+-+;+>+,+S.F.n.p..   ",
". r s :.n.F.G.Z.`. +.+.+'+)+!+~+{+]+S.F.n.p..   ",
". r s :.n.F.^+/+(+_+:+<+[+}+|+1+2+3+S.F.n.p..   ",
". 4+5+6+7+8+9+0+0+a+b+c+3 3 3 3 3 3 d+8+7+e+.   ",
"    f+g+h+i+j+k+k+l+m+n+! ! ! ! ! ! o+i+h+p+    "};
