/* XPM */
static const char * filesave_xpm[] = {
"24 23 167 2",
"  	c None",
". 	c #5F666D",
"+ 	c #5D656D",
"@ 	c #56626C",
"# 	c #5A6670",
"$ 	c #646E77",
"% 	c #737A81",
"& 	c #777D83",
"* 	c #6B737B",
"= 	c #5D6872",
"- 	c #56626D",
"; 	c #5A636D",
"> 	c #56616C",
", 	c #314F69",
"' 	c #46647E",
") 	c #788EA1",
"! 	c #CBD0D5",
"~ 	c #E0E1E2",
"{ 	c #9FACB7",
"] 	c #557086",
"^ 	c #31526E",
"/ 	c #44586B",
"( 	c #5B6671",
"_ 	c #4A6782",
": 	c #567592",
"< 	c #7F98AD",
"[ 	c #E5EAEF",
"} 	c #F0F0F0",
"| 	c #E0E1E1",
"1 	c #E6E6E6",
"2 	c #FAFAFA",
"3 	c #AEBEC9",
"4 	c #597891",
"5 	c #4A6A89",
"6 	c #53667A",
"7 	c #646D78",
"8 	c #7689A2",
"9 	c #708AA4",
"0 	c #E1E2E2",
"a 	c #C3C4C5",
"b 	c #CDCECF",
"c 	c #F5F5F5",
"d 	c #627F97",
"e 	c #758DA8",
"f 	c #6C7B8C",
"g 	c #F7F7F7",
"h 	c #EFEFEF",
"i 	c #F2F2F2",
"j 	c #FCFCFC",
"k 	c #F1F1F2",
"l 	c #E3E4E4",
"m 	c #E8E8E9",
"n 	c #FAFAFB",
"o 	c #E0E0E1",
"p 	c #C0C1C2",
"q 	c #CBCCCC",
"r 	c #F6F6F6",
"s 	c #ECECED",
"t 	c #EFEFF0",
"u 	c #738CA7",
"v 	c #7B94AB",
"w 	c #B5C3CE",
"x 	c #C3CFD7",
"y 	c #95A9BA",
"z 	c #6B859F",
"A 	c #778EA9",
"B 	c #7A90AC",
"C 	c #628098",
"D 	c #5E7C94",
"E 	c #6C86A0",
"F 	c #788FAB",
"G 	c #728BA5",
"H 	c #7189A4",
"I 	c #6E88A5",
"J 	c #62809E",
"K 	c #567897",
"L 	c #326082",
"M 	c #728BA7",
"N 	c #537695",
"O 	c #63829B",
"P 	c #7A92A5",
"Q 	c #7C94A6",
"R 	c #839AAC",
"S 	c #8AA0B1",
"T 	c #90A5B6",
"U 	c #95ABBC",
"V 	c #9BB0C1",
"W 	c #A3B7C8",
"X 	c #AFC1CF",
"Y 	c #7F9AB1",
"Z 	c #3C6788",
"` 	c #6A889E",
" .	c #9EABB6",
"..	c #8497A6",
"+.	c #8497A8",
"@.	c #8C9EAF",
"#.	c #94A5B5",
"$.	c #AEB9C5",
"%.	c #C8CED5",
"&.	c #D0D7DE",
"*.	c #DAE0E7",
"=.	c #E6EAF1",
"-.	c #FAFBFC",
";.	c #98AFC0",
">.	c #909FAD",
",.	c #395C79",
"'.	c #375D7E",
").	c #4B6F8F",
"!.	c #4B6F90",
"~.	c #899EB1",
"{.	c #8E9EAC",
"].	c #325675",
"^.	c #30577A",
"/.	c #446A8C",
"(.	c #839AAF",
"_.	c #C5CBD3",
":.	c #D1D5DA",
"<.	c #D9DDE3",
"[.	c #E4E8EF",
"}.	c #FAFAFC",
"|.	c #8298AD",
"1.	c #C4C9D1",
"2.	c #CFD3D7",
"3.	c #D6DBE1",
"4.	c #E1E6ED",
"5.	c #F9FAFB",
"6.	c #8398AA",
"7.	c #C4C7CC",
"8.	c #CAD0D8",
"9.	c #D1D9E1",
"0.	c #DDE5EB",
"a.	c #F8FAFB",
"b.	c #738DA1",
"c.	c #ABB3BB",
"d.	c #8192A2",
"e.	c #859AAD",
"f.	c #97ACC0",
"g.	c #A6B8C8",
"h.	c #C7D0D8",
"i.	c #E4E6E7",
"j.	c #E6E9EE",
"k.	c #EAEDF2",
"l.	c #EFF3F6",
"m.	c #FCFDFD",
"n.	c #636D77",
"o.	c #728399",
"p.	c #7588A0",
"q.	c #6B819A",
"r.	c #436783",
"s.	c #74899A",
"t.	c #AFB2B6",
"u.	c #B7BDC3",
"v.	c #C4CCD2",
"w.	c #DADDDF",
"x.	c #8CA1B0",
"y.	c #6B7989",
"z.	c #636C76",
"A.	c #636C77",
"B.	c #616B75",
"C.	c #5A6671",
"D.	c #636D75",
"E.	c #6E747B",
"F.	c #70767D",
"G.	c #727980",
"H.	c #767C83",
"I.	c #68717A",
"J.	c #636C75",
". . . . . . . . . . . . . . . . . . . . . . .   ",
". + @ # $ % & & & & & & & & & & & & * = - ; .   ",
". > , ' ) ! ~ ~ ~ ~ ~ ~ ~ ~ ~ ~ ~ ~ { ] ^ / .   ",
". ( _ : < [ } | | | | | | | | | 1 2 3 4 5 6 .   ",
". 7 8 9 < [ 0 a a a a a a a a a b c 3 d e f .   ",
". 7 8 9 < [ g h h h h h h h h h i j 3 d e f .   ",
". 7 8 9 < [ k l l l l l l l l l m n 3 d e f .   ",
". 7 8 9 < [ o p p p p p p p p p q c 3 d e f .   ",
". 7 8 9 < [ r s s s s s s s s s t j 3 d e f .   ",
". 7 8 u v w x x x x x x x x x x x x y z A f .   ",
". 7 8 B e C D D D D D D D D D D D D E B B f .   ",
". 7 8 B F G H H H H H H H H H H H H e B B f .   ",
". 7 8 B B B I J J J J J J J J J J J I B B f .   ",
". 7 8 B B B K L L L L L L L L L L L K B B f .   ",
". 7 8 B M N O P P P Q R S T U V W X Y N M f .   ",
". 7 8 B I Z `  ...+.@.#.$.%.&.*.=.-.;.Z I f .   ",
". 7 8 B I Z ` >.,.'.).!.~.%.&.*.=.-.;.Z I f .   ",
". 7 8 B I Z ` {.].^././.(._.:.<.[.}.;.Z I f .   ",
". 7 8 B I Z ` {.].^././.|.1.2.3.4.5.;.Z I f .   ",
". 7 8 B I Z ` {.].^././.6.7.8.9.0.a.;.Z I f .   ",
". 7 8 B I Z b.c.d.e.f.g.h.i.j.k.l.m.;.Z I f .   ",
". n.o.p.q.r.s.t.t.u.v.w.~ ~ ~ ~ ~ ~ x.r.q.y..   ",
"    z.A.B.C.D.E.E.F.G.H.& & & & & & I.C.B.J.    "};
