/* XPM */
static const char * fileopen_xpm[] = {
"24 23 265 2",
"  	c None",
". 	c #376485",
"+ 	c #346283",
"@ 	c #446F8B",
"# 	c #7799A2",
"$ 	c #84A4A7",
"% 	c #7D9FA4",
"& 	c #4E778F",
"* 	c #215579",
"= 	c #23567A",
"- 	c #2B5C7F",
"; 	c #2D5D80",
"> 	c #2D5E80",
", 	c #47708F",
"' 	c #5D8398",
") 	c #B6CEBE",
"! 	c #D5E8CA",
"~ 	c #C4DAC1",
"{ 	c #628898",
"] 	c #47728C",
"^ 	c #2F5F81",
"/ 	c #6585A2",
"( 	c #738EAA",
"_ 	c #6D8AA6",
": 	c #4F7896",
"< 	c #7D9AB0",
"[ 	c #9BAFBF",
"} 	c #6B8E9F",
"| 	c #97B5A5",
"1 	c #CBE2B5",
"2 	c #BBD2BC",
"3 	c #80A0A5",
"4 	c #336284",
"5 	c #7B94AE",
"6 	c #8DA0B9",
"7 	c #859BB5",
"8 	c #6587A4",
"9 	c #819BB3",
"0 	c #96A9BD",
"a 	c #597C98",
"b 	c #6C8F95",
"c 	c #98B79F",
"d 	c #C3DCB1",
"e 	c #A5C2AD",
"f 	c #7598A1",
"g 	c #3F6D87",
"h 	c #8B9FB8",
"i 	c #829BB5",
"j 	c #7993AE",
"k 	c #718BA7",
"l 	c #6986A0",
"m 	c #4F7492",
"n 	c #4C7787",
"o 	c #A1C48F",
"p 	c #CAE4B0",
"q 	c #BFD6C2",
"r 	c #416F88",
"s 	c #26597C",
"t 	c #295B7E",
"u 	c #8CA0B9",
"v 	c #8A9EB8",
"w 	c #879CB6",
"x 	c #859AB3",
"y 	c #8298B2",
"z 	c #5C7E9B",
"A 	c #567D99",
"B 	c #7997AF",
"C 	c #7992AD",
"D 	c #6584A1",
"E 	c #6987A4",
"F 	c #527795",
"G 	c #4C7784",
"H 	c #9EC482",
"I 	c #C9E3A9",
"J 	c #4F7895",
"K 	c #6E8FA8",
"L 	c #306182",
"M 	c #577A99",
"N 	c #225579",
"O 	c #24577B",
"P 	c #24587B",
"Q 	c #2E5E80",
"R 	c #396684",
"S 	c #396784",
"T 	c #4C7A7F",
"U 	c #99C46C",
"V 	c #C5E39A",
"W 	c #BFD7BF",
"X 	c #437286",
"Y 	c #24587A",
"Z 	c #225679",
"` 	c #23577A",
" .	c #2C5D80",
"..	c #466F8E",
"+.	c #316183",
"@.	c #7391AA",
"#.	c #869EB6",
"$.	c #8AA1B8",
"%.	c #8DA4BA",
"&.	c #6284A0",
"*.	c #42737F",
"=.	c #6FAF69",
"-.	c #7ABE63",
";.	c #80C462",
">.	c #9ADD5B",
",.	c #A8E86B",
"'.	c #A6E477",
").	c #7DC264",
"!.	c #8ABB8A",
"~.	c #8CACAA",
"{.	c #366683",
"].	c #6A8DA6",
"^.	c #A2B8C8",
"/.	c #5E829D",
"(.	c #326183",
"_.	c #7791AC",
":.	c #557998",
"<.	c #396687",
"[.	c #98ABC0",
"}.	c #B4BFD2",
"|.	c #BAC3D5",
"1.	c #BEC8D9",
"2.	c #92A7BD",
"3.	c #688F97",
"4.	c #76B56E",
"5.	c #8AD45B",
"6.	c #9AEA53",
"7.	c #9EEA5A",
"8.	c #ADEC75",
"9.	c #A9D598",
"0.	c #97B5B1",
"a.	c #7092A5",
"b.	c #A5BAC9",
"c.	c #CAD6E0",
"d.	c #6688A2",
"e.	c #316082",
"f.	c #708CA7",
"g.	c #507695",
"h.	c #386587",
"i.	c #92A6BD",
"j.	c #AEBBCE",
"k.	c #B5C0D2",
"l.	c #BDC6D8",
"m.	c #A9B8CB",
"n.	c #4F7792",
"o.	c #6AA86B",
"p.	c #A5EB67",
"q.	c #D2EFB9",
"r.	c #81A4A4",
"s.	c #47728F",
"t.	c #CFD9E0",
"u.	c #D3DCE4",
"v.	c #A4B8C9",
"w.	c #27597C",
"x.	c #3E698A",
"y.	c #517896",
"z.	c #6A89A5",
"A.	c #95A8BF",
"B.	c #A6B5C9",
"C.	c #B4C0D2",
"D.	c #BAC4D5",
"E.	c #B5C0D3",
"F.	c #93A7BD",
"G.	c #739B95",
"H.	c #66A46D",
"I.	c #90DC58",
"J.	c #B0EC7A",
"K.	c #B6DEA0",
"L.	c #779E9B",
"M.	c #83A2B0",
"N.	c #ADBFCE",
"O.	c #E3E9ED",
"P.	c #B2C2CF",
"Q.	c #7090A8",
"R.	c #537998",
"S.	c #899FB8",
"T.	c #96A8BF",
"U.	c #9FAFC4",
"V.	c #B9C3D5",
"W.	c #BBC4D6",
"X.	c #8CA2B9",
"Y.	c #628B92",
"Z.	c #78B96B",
"`.	c #94C48C",
" +	c #9BB8B2",
".+	c #64899E",
"++	c #9FB4C5",
"@+	c #E9EDF2",
"#+	c #ECEFF3",
"$+	c #9DB2C2",
"%+	c #4D7492",
"&+	c #8EA1BA",
"*+	c #93A5BD",
"=+	c #98A9C0",
"-+	c #9EAEC4",
";+	c #A7B5C9",
">+	c #B7C1D3",
",+	c #9FB0C4",
"'+	c #517A8F",
")+	c #356680",
"!+	c #48738F",
"~+	c #B5C5D2",
"{+	c #DAE1E8",
"]+	c #E5EAEE",
"^+	c #9CB1C2",
"/+	c #3C6889",
"(+	c #6383A0",
"_+	c #879CB5",
":+	c #8EA1B9",
"<+	c #B2BDD0",
"[+	c #8EA3BA",
"}+	c #849FB5",
"|+	c #92ABBE",
"1+	c #C8D3DF",
"2+	c #DAE1E9",
"3+	c #DDE3EA",
"4+	c #D3DBE5",
"5+	c #8FA6BB",
"6+	c #527695",
"7+	c #6D89A5",
"8+	c #8097B0",
"9+	c #889CB6",
"0+	c #C2CCDB",
"a+	c #C9D4E0",
"b+	c #CED7E3",
"c+	c #D4DCE6",
"d+	c #D0D9E3",
"e+	c #ACBDCD",
"f+	c #7E99B1",
"g+	c #2C5D7F",
"h+	c #597B97",
"i+	c #6F89A5",
"j+	c #7C92AD",
"k+	c #8FA1BA",
"l+	c #94A5BD",
"m+	c #99A9C0",
"n+	c #AFBBCE",
"o+	c #BFC8D9",
"p+	c #C4CEDD",
"q+	c #C9D5E0",
"r+	c #CED8E3",
"s+	c #BECBD9",
"t+	c #6D8DA6",
"u+	c #587C99",
"v+	c #295A7D",
"w+	c #2D5D7F",
"x+	c #3C6787",
"y+	c #456D8D",
"z+	c #4A7091",
"A+	c #4C7392",
"B+	c #4F7594",
"C+	c #537897",
"D+	c #577B99",
"E+	c #5A7D9B",
"F+	c #5E819D",
"G+	c #6183A0",
"H+	c #6486A2",
"I+	c #6787A3",
"J+	c #6989A5",
"K+	c #6B8CA6",
"L+	c #7091A9",
"M+	c #537996",
"N+	c #305F81",
"O+	c #24577A",
"P+	c #285A7D",
"                                                ",
"                                                ",
"                . . . . . .                     ",
"                + . @ # $ % &                   ",
"* = - ; ; ; ; >   , ' ) ! ~ { ]                 ",
"* ^ / ( ( ( ( _ : < [ } | 1 2 3 .               ",
"* 4 5 6 6 6 6 7 8 9 0 a b c d e f g             ",
"* 4 5 6 6 6 6 h i j k l m n o p q r s t = *     ",
"* 4 5 6 6 6 6 u v w x y z n o p q r A B 4 *     ",
"* 4 5 C D D D D D E _ _ F G H I q r J K L *     ",
"* 4 5 M N O O O P Q . R S T U V W X Y P Z `  ...",
"* 4 5 M +.@.#.$.%.&.*.=.-.;.>.,.'.).!.~.{.].^./.",
"* (._.:.<.[.}.|.1.2.3.4.5.6.6.6.7.8.9.0.a.b.c.d.",
"* e.f.g.h.i.j.k.|.l.m.n.o.6.6.6.p.q.r.s.t.u.v./.",
"* w.x.y.z.A.B.j.C.D.E.F.G.H.I.J.K.L.M.N.O.P.Q.  ",
"* * * R.S.T.U.B.j.C.V.W.X.Y.Z.`. +.+++@+#+$+%+  ",
"* * * M &+*+=+-+;+j.k.|.>+,+'+)+!+~+{+]+@+^+%+  ",
"* s /+(+_+:+*+=+U.B.j.k.V.<+[+}+|+1+2+3+4+5+%+  ",
"* - 6+7+8+9+:+*+=+U.;+j.k.V.W.0+a+b+c+d+e+f+%+  ",
"* g+h+i+j+8+_+k+l+m+U.;+n+k.|.o+p+q+r+s+t+u+    ",
"v+w+x+y+z+A+B+C+:.D+E+F+G+H+I+J+K+K L+K+M+%+    ",
"N+; O+* * * * * * * * * * * * * * * * P+..      ",
"                                                "};
