/* XPM */
static char * fsxconn_xpm[] = {
"24 24 71 1",
" 	c None",
".	c #FF4000",
"+	c #FF0000",
"@	c #FFFF00",
"#	c #000000",
"$	c #FF8000",
"%	c #FFBF00",
"&	c #141109",
"*	c #D0B562",
"=	c #B8952A",
"-	c #D4AC29",
";	c #C69F25",
">	c #BC9722",
",	c #BB992E",
"'	c #0C0A03",
")	c #CAB372",
"!	c #BA9525",
"~	c #C7A026",
"{	c #BD9723",
"]	c #BA962B",
"^	c #AF9343",
"/	c #C29C26",
"(	c #C49E26",
"_	c #BF9923",
":	c #BA9831",
"<	c #9C7B23",
"[	c #C8A026",
"}	c #C09924",
"|	c #BB9523",
"1	c #BFBF00",
"2	c #AA0000",
"3	c #004040",
"4	c #002020",
"5	c #008080",
"6	c #006060",
"7	c #4F441E",
"8	c #404000",
"9	c #261F09",
"0	c #010101",
"a	c #221F17",
"b	c #382C0E",
"c	c #47380D",
"d	c #4A3C0E",
"e	c #5F4D14",
"f	c #97844D",
"g	c #9B7C1C",
"h	c #AE8C21",
"i	c #BA9624",
"j	c #D3AB32",
"k	c #A6904D",
"l	c #A8914D",
"m	c #B59121",
"n	c #C8A227",
"o	c #CEA728",
"p	c #DAB02D",
"q	c #D9B132",
"r	c #C19A2E",
"s	c #171306",
"t	c #23211B",
"u	c #88702E",
"v	c #947622",
"w	c #9A7C22",
"x	c #AE8C25",
"y	c #B4922C",
"z	c #B3922D",
"A	c #B9962E",
"B	c #C19D31",
"C	c #C7A134",
"D	c #C69F2F",
"E	c #977824",
"F	c #0C0A05",
"                       .",
"                +     .@",
"                ++  +.@@",
"#              +$+#+%@@@",
"##            +%@++%@@@.",
" #&  *=-;>,   .@@+%@@%+'",
" ##   )!~{]  +@@@@@@%+##",
" ##    ^/(_:+%@$$@@.+## ",
"  ##    <[}|#1$++@.###  ",
"  ##    ########2+##    ",
"  ##   ##334#3564##     ",
"   ##  #4553#3555##     ",
"    ####3553#3555##     ",
"     ###5553#3555##     ",
"    + ##3553#3555###    ",
"    ++ ##553#3563####   ",
"   +$.7+8########90 #   ",
"   +@%+.@$+##abcde   #  ",
"  +$@@$@@.##  fghij  #  ",
" k+@@@@@$+#   lmnopq ## ",
"r+$@%%@%+stuvwxyzABCDE#F",
" +@%..@+##             #",
"+..+#+.##              #",
"++### ##                "};
