/* XPM */
static char * fsxdeco_xpm[] = {
"24 24 103 2",
"  	c None",
". 	c #000000",
"+ 	c #282213",
"@ 	c #9F8126",
"# 	c #141109",
"$ 	c #D0B562",
"% 	c #B8952A",
"& 	c #D4AC29",
"* 	c #C69F25",
"= 	c #BC9722",
"- 	c #BB992E",
"; 	c #B5953C",
"> 	c #C29A23",
", 	c #CEA427",
"' 	c #BF9A32",
") 	c #CAB372",
"! 	c #A78626",
"~ 	c #AF9142",
"{ 	c #C19925",
"] 	c #5A4810",
"^ 	c #9F8229",
"/ 	c #BBA256",
"( 	c #B19132",
"_ 	c #004040",
": 	c #008080",
"< 	c #C0C000",
"[ 	c #DFDF00",
"} 	c #A99144",
"| 	c #B49336",
"1 	c #352A09",
"2 	c #53420F",
"3 	c #564413",
"4 	c #A78D3D",
"5 	c #B79639",
"6 	c #002020",
"7 	c #3E310B",
"8 	c #8F721A",
"9 	c #A4821D",
"0 	c #A28530",
"a 	c #3A2E0F",
"b 	c #A8841D",
"c 	c #BF9622",
"d 	c #C09822",
"e 	c #B18C20",
"f 	c #006060",
"g 	c #2D250F",
"h 	c #4F411C",
"i 	c #54420D",
"j 	c #6E5613",
"k 	c #0D0B04",
"l 	c #736A4F",
"m 	c #947829",
"n 	c #A9861E",
"o 	c #4D4322",
"p 	c #332A0E",
"q 	c #0E0B04",
"r 	c #B8A15B",
"s 	c #A6811E",
"t 	c #AE9644",
"u 	c #A48934",
"v 	c #AE913E",
"w 	c #B09232",
"x 	c #E6C142",
"y 	c #AD924A",
"z 	c #CCA93C",
"A 	c #EFC63A",
"B 	c #362C0A",
"C 	c #463910",
"D 	c #0F0D08",
"E 	c #A8914E",
"F 	c #BB9937",
"G 	c #F2CA42",
"H 	c #F5CC42",
"I 	c #F0C83F",
"J 	c #E4BE41",
"K 	c #9A8546",
"L 	c #564510",
"M 	c #4A3C0E",
"N 	c #5D4B12",
"O 	c #AB8A23",
"P 	c #BB992B",
"Q 	c #010101",
"R 	c #C19A2E",
"S 	c #E0B539",
"T 	c #E8C245",
"U 	c #E2BC45",
"V 	c #E0BB43",
"W 	c #DBB741",
"X 	c #D4B039",
"Y 	c #CAA530",
"Z 	c #AA8A29",
"` 	c #A38638",
" .	c #957723",
"..	c #9C7D23",
"+.	c #A78623",
"@.	c #937723",
"#.	c #8B7223",
"$.	c #977A25",
"%.	c #B8962E",
"&.	c #C59F33",
"*.	c #C69F2F",
"=.	c #AE8B2A",
"-.	c #756021",
"                                                ",
"                                                ",
"                                                ",
".                                               ",
". .                                             ",
"  . +                                       @   ",
"  . #     $ % & * = -               ; > , '     ",
"  . .       ) . . . !               ~ {         ",
"    . .   . . . . . ] ^           / (           ",
"    . .   . _ : : . < < [       } |             ",
"    . . . . : : : . 1 2 3     4 5               ",
"      . . 6 : : : . 7 8 9 0 . . . .             ",
"        . _ : : : . a b c d . 6 _ 6 .           ",
"        . . _ : : . < < [ e . _ : : f .         ",
"          . 6 _ _ . g h i j . _ : : : . .       ",
"            . . . . k l m n . _ : : : . .       ",
"              o p q .   r s . _ : : : . . .     ",
"            t u           v . _ : : : . . .     ",
"          w x               . 6 _ 6 . . . .     ",
"      y z A                 . . . B C D . . .   ",
"  E F G H I J               K L M N O P     . Q ",
"R S T U V W X Y Z     `  ...+.@.#.$.%.&.*.=.-.. ",
"                                              . ",
"                                                "};
