/* XPM */
static const char * outils_xpm[] = {
"24 24 24 1",
" 	c None",
".	c #000000",
"+	c #585858",
"@	c #3B3B3B",
"#	c #B0B0B0",
"$	c #848484",
"%	c #484848",
"&	c #1C1C1C",
"*	c #A0A0A0",
"=	c #2C2C2C",
"-	c #707070",
";	c #808080",
">	c #FF0000",
",	c #A00000",
"'	c #800000",
")	c #DF0000",
"!	c #BF0000",
"~	c #400000",
"{	c #909090",
"]	c #600000",
"^	c #550000",
"/	c #747474",
"(	c #6C2C2C",
"_	c #2B0000",
"            .++@        ",
"           +####@       ",
"          +###$.        ",
"          +##$     @    ",
"          +#$$@   $+    ",
"          @#%&$@ $#+    ",
"           $#%&$+##.    ",
"          @*##$#+=+     ",
"         .*--*$@.   ..  ",
"         $--;$     .>>, ",
"        $;-;$      '')'.",
"       +;-;$      '!!~'.",
"      @{-;$      '!!]]. ",
"     @*-;$     ^'!!]]   ",
"    @*-;$     .!'!]]    ",
"    $--/      .>!~]     ",
"   $;-*@       (']_     ",
"  $;-*@       + ..      ",
" @{-*@       +          ",
"@*-*@     @@+           ",
"+-*@     @##@           ",
" +@      $##@           ",
"         @$@            ",
"                        "};
